<?xml version="1.0" encoding="UTF-8"?>
<svg xmlns="http://www.w3.org/2000/svg" xmlns:xlink="http://www.w3.org/1999/xlink" width="400px" height="250px" viewBox="0 0 399 250" version="1.1">
<defs>
<clipPath id="clip1">
  <path d="M 133.535156 102.226562 L 322.347656 102.226562 L 322.347656 146.964844 L 133.535156 146.964844 Z M 133.535156 102.226562 "/>
</clipPath>
<clipPath id="clip2">
  <path d="M 110 107 L 122.984375 107 L 122.984375 131 L 110 131 Z M 110 107 "/>
</clipPath>
<clipPath id="clip3">
  <path d="M 90 97.703125 L 111 97.703125 L 111 118 L 90 118 Z M 90 97.703125 "/>
</clipPath>
<clipPath id="clip4">
  <path d="M 100 126 L 122.984375 126 L 122.984375 139 L 100 139 Z M 100 126 "/>
</clipPath>
<clipPath id="clip5">
  <path d="M 88 131 L 109 131 L 109 151.492188 L 88 151.492188 Z M 88 131 "/>
</clipPath>
<clipPath id="clip6">
  <path d="M 76.167969 118 L 89 118 L 89 142 L 76.167969 142 Z M 76.167969 118 "/>
</clipPath>
<clipPath id="clip7">
  <path d="M 76.167969 110 L 100 110 L 100 123 L 76.167969 123 Z M 76.167969 110 "/>
</clipPath>
<clipPath id="clip8">
  <path d="M 0.0820312 0 L 245 0 L 245 249.195312 L 0.0820312 249.195312 Z M 0.0820312 0 "/>
</clipPath>
<clipPath id="clip9">
  <path d="M 0.0820312 0 L 251 0 L 251 249.195312 L 0.0820312 249.195312 Z M 0.0820312 0 "/>
</clipPath>
</defs>
<g id="surface1">
<g clip-path="url(#clip1)" clip-rule="nonzero">
<path style=" stroke:none;fill-rule:nonzero;fill:rgb(38.039216%,46.666667%,49.803922%);fill-opacity:1;" d="M 143.421875 119.34375 L 137.863281 124.859375 L 137.863281 136.792969 L 133.539062 136.792969 L 133.539062 102.75 L 137.863281 102.75 L 137.863281 119.960938 L 154.820312 102.75 L 160.425781 102.75 L 146.507812 116.632812 L 160.519531 136.792969 L 155.390625 136.792969 Z M 183.414062 112.355469 L 183.414062 136.792969 L 179.566406 136.792969 L 179.566406 132.941406 C 177.824219 135.855469 175.230469 137.316406 171.777344 137.316406 C 169.402344 137.316406 167.507812 136.71875 166.097656 135.527344 C 164.691406 134.339844 163.988281 132.75 163.988281 130.753906 L 163.988281 112.355469 L 167.835938 112.355469 L 167.835938 129.183594 C 167.835938 130.609375 168.292969 131.753906 169.210938 132.609375 C 170.132812 133.464844 171.367188 133.890625 172.917969 133.890625 C 174.945312 133.890625 176.558594 133.152344 177.761719 131.675781 C 178.964844 130.207031 179.566406 128.21875 179.566406 125.714844 L 179.566406 112.355469 Z M 189.398438 136.792969 L 189.398438 102.75 L 193.246094 102.75 L 193.246094 115.636719 C 195.046875 113.097656 197.578125 111.832031 200.847656 111.832031 C 204.300781 111.832031 206.960938 113.097656 208.828125 115.636719 C 210.472656 117.855469 211.296875 120.785156 211.296875 124.429688 C 211.296875 128.644531 210.207031 131.925781 208.019531 134.273438 C 206.121094 136.300781 203.664062 137.316406 200.65625 137.316406 C 197.269531 137.316406 194.683594 136.03125 192.90625 133.464844 L 192.90625 136.792969 Z M 200.136719 115.445312 C 198.046875 115.445312 196.375 116.289062 195.117188 117.984375 C 193.871094 119.683594 193.246094 121.925781 193.246094 124.714844 C 193.246094 127.632812 193.960938 129.914062 195.386719 131.5625 C 196.621094 132.957031 198.203125 133.652344 200.136719 133.652344 C 202.289062 133.652344 204.003906 132.84375 205.285156 131.230469 C 206.570312 129.613281 207.210938 127.441406 207.210938 124.714844 C 207.210938 121.734375 206.484375 119.390625 205.027344 117.679688 C 203.761719 116.191406 202.128906 115.445312 200.136719 115.445312 Z M 236.699219 125.570312 L 236.699219 125.714844 L 218.699219 125.714844 C 218.730469 127.804688 219.171875 129.46875 220.027344 130.707031 C 221.390625 132.703125 223.351562 133.703125 225.917969 133.703125 C 229.085938 133.703125 231.222656 132.195312 232.332031 129.183594 L 236.226562 129.183594 C 235.71875 131.753906 234.546875 133.75 232.710938 135.175781 C 230.875 136.601562 228.5625 137.316406 225.777344 137.316406 C 222.070312 137.316406 219.238281 136.046875 217.273438 133.511719 C 215.53125 131.292969 214.660156 128.359375 214.660156 124.714844 C 214.660156 120.5 215.800781 117.21875 218.082031 114.875 C 220.074219 112.847656 222.65625 111.832031 225.824219 111.832031 C 228.136719 111.832031 230.171875 112.386719 231.933594 113.496094 C 233.6875 114.605469 234.941406 116.125 235.703125 118.058594 C 236.367188 119.707031 236.699219 122.210938 236.699219 125.570312 Z M 218.839844 122.527344 L 232.519531 122.527344 C 232.519531 120.40625 231.898438 118.683594 230.648438 117.367188 C 229.394531 116.054688 227.785156 115.398438 225.824219 115.398438 C 223.828125 115.398438 222.207031 116.039062 220.960938 117.316406 C 219.707031 118.605469 219 120.339844 218.839844 122.527344 Z M 256.9375 102.226562 C 262.191406 102.226562 266.339844 104.050781 269.378906 107.695312 C 272.007812 110.863281 273.324219 114.890625 273.324219 119.769531 C 273.324219 125.382812 271.628906 129.820312 268.242188 133.082031 C 265.265625 135.902344 261.496094 137.316406 256.9375 137.316406 C 251.648438 137.316406 247.484375 135.492188 244.441406 131.847656 C 241.816406 128.675781 240.5 124.652344 240.5 119.769531 C 240.5 114.160156 242.210938 109.722656 245.628906 106.460938 C 248.574219 103.636719 252.34375 102.226562 256.9375 102.226562 Z M 256.886719 106.078125 C 253.023438 106.078125 249.96875 107.488281 247.722656 110.308594 C 245.789062 112.78125 244.824219 115.9375 244.824219 119.769531 C 244.824219 124.175781 246.074219 127.648438 248.574219 130.183594 C 250.761719 132.371094 253.53125 133.464844 256.886719 133.464844 C 260.785156 133.464844 263.855469 132.054688 266.101562 129.230469 C 268.035156 126.761719 269 123.605469 269 119.769531 C 269 115.367188 267.75 111.894531 265.25 109.359375 C 263.0625 107.171875 260.277344 106.078125 256.886719 106.078125 Z M 281.445312 146.964844 L 277.550781 146.964844 L 277.550781 112.355469 L 281.160156 112.355469 L 281.160156 116.109375 C 282.964844 113.257812 285.5625 111.832031 288.949219 111.832031 C 292.402344 111.832031 295.0625 113.164062 296.929688 115.824219 C 298.578125 118.140625 299.402344 121.179688 299.402344 124.953125 C 299.402344 128.980469 298.324219 132.117188 296.171875 134.367188 C 294.300781 136.332031 291.878906 137.316406 288.902344 137.316406 C 285.894531 137.316406 283.410156 136.222656 281.445312 134.035156 Z M 288.285156 115.445312 C 286.226562 115.445312 284.570312 116.285156 283.316406 117.964844 C 282.070312 119.644531 281.445312 121.894531 281.445312 124.714844 C 281.445312 127.632812 282.160156 129.914062 283.582031 131.5625 C 284.785156 132.957031 286.355469 133.652344 288.285156 133.652344 C 290.4375 133.652344 292.15625 132.835938 293.433594 131.199219 C 294.71875 129.570312 295.363281 127.410156 295.363281 124.714844 C 295.363281 121.734375 294.636719 119.390625 293.179688 117.679688 C 291.878906 116.191406 290.25 115.445312 288.285156 115.445312 Z M 321.582031 119.058594 L 317.308594 119.058594 C 317.183594 116.617188 315.550781 115.398438 312.414062 115.398438 C 310.800781 115.398438 309.523438 115.703125 308.585938 116.320312 C 307.65625 116.941406 307.191406 117.773438 307.191406 118.820312 C 307.191406 120.40625 308.695312 121.546875 311.703125 122.242188 L 315.457031 123.097656 C 317.894531 123.667969 319.652344 124.476562 320.726562 125.523438 C 321.804688 126.570312 322.34375 127.996094 322.34375 129.804688 C 322.34375 132.117188 321.441406 133.945312 319.636719 135.289062 C 317.832031 136.640625 315.390625 137.316406 312.320312 137.316406 C 308.964844 137.316406 306.414062 136.523438 304.671875 134.9375 C 303.214844 133.636719 302.441406 131.910156 302.347656 129.753906 L 306.761719 129.753906 C 307.015625 130.863281 307.363281 131.671875 307.808594 132.179688 C 308.664062 133.195312 310.261719 133.703125 312.605469 133.703125 C 314.347656 133.703125 315.730469 133.375 316.757812 132.722656 C 317.789062 132.074219 318.304688 131.214844 318.304688 130.136719 C 318.304688 128.519531 317.054688 127.410156 314.554688 126.808594 L 310.894531 125.953125 C 308.109375 125.285156 306.160156 124.492188 305.054688 123.574219 C 303.785156 122.527344 303.152344 121.023438 303.152344 119.058594 C 303.152344 116.839844 304 115.082031 305.691406 113.78125 C 307.386719 112.480469 309.660156 111.832031 312.511719 111.832031 C 315.488281 111.832031 317.800781 112.578125 319.445312 114.066406 C 320.871094 115.367188 321.582031 117.03125 321.582031 119.058594 Z M 321.582031 119.058594 "/>
</g>
<g clip-path="url(#clip2)" clip-rule="nonzero">
<path style=" stroke:none;fill-rule:evenodd;fill:rgb(78.431373%,78.431373%,78.431373%);fill-opacity:1;" d="M 122.984375 111.449219 L 110.980469 130.394531 L 111.039062 107.921875 Z M 122.984375 111.449219 "/>
</g>
<g clip-path="url(#clip3)" clip-rule="nonzero">
<path style=" stroke:none;fill-rule:evenodd;fill:rgb(78.431373%,78.431373%,78.431373%);fill-opacity:1;" d="M 99.875 97.703125 L 110.265625 117.605469 L 90.859375 106.308594 Z M 99.875 97.703125 "/>
</g>
<path style=" stroke:none;fill-rule:evenodd;fill:rgb(78.431373%,78.431373%,78.431373%);fill-opacity:1;" d="M 110.621094 117.484375 L 110.621094 107.921875 L 106.441406 109.238281 Z M 110.621094 117.484375 "/>
<g clip-path="url(#clip4)" clip-rule="nonzero">
<path style=" stroke:none;fill-rule:evenodd;fill:rgb(78.431373%,78.431373%,78.431373%);fill-opacity:1;" d="M 122.804688 138.34375 L 100.351562 137.445312 L 119.820312 126.210938 Z M 122.804688 138.34375 "/>
</g>
<path style=" stroke:none;fill-rule:evenodd;fill:rgb(78.431373%,78.431373%,78.431373%);fill-opacity:1;" d="M 111.398438 130.632812 L 119.578125 125.851562 L 116.355469 122.921875 Z M 111.398438 130.632812 "/>
<g clip-path="url(#clip5)" clip-rule="nonzero">
<path style=" stroke:none;fill-rule:evenodd;fill:rgb(78.431373%,78.431373%,78.431373%);fill-opacity:1;" d="M 99.21875 151.492188 L 88.945312 131.589844 L 108.292969 142.945312 Z M 99.21875 151.492188 "/>
</g>
<path style=" stroke:none;fill-rule:evenodd;fill:rgb(78.431373%,78.431373%,78.431373%);fill-opacity:1;" d="M 100.292969 137.746094 L 108.472656 142.527344 L 109.429688 138.285156 Z M 100.292969 137.746094 "/>
<g clip-path="url(#clip6)" clip-rule="nonzero">
<path style=" stroke:none;fill-rule:evenodd;fill:rgb(78.431373%,78.431373%,78.431373%);fill-opacity:1;" d="M 76.167969 137.625 L 88.351562 118.738281 L 88.109375 141.210938 Z M 76.167969 137.625 "/>
</g>
<path style=" stroke:none;fill-rule:evenodd;fill:rgb(78.431373%,78.431373%,78.431373%);fill-opacity:1;" d="M 88.589844 131.710938 L 88.527344 141.210938 L 92.707031 139.898438 Z M 88.589844 131.710938 "/>
<g clip-path="url(#clip7)" clip-rule="nonzero">
<path style=" stroke:none;fill-rule:evenodd;fill:rgb(78.431373%,78.431373%,78.431373%);fill-opacity:1;" d="M 76.707031 110.730469 L 99.097656 111.867188 L 79.570312 122.863281 Z M 76.707031 110.730469 "/>
</g>
<path style=" stroke:none;fill-rule:evenodd;fill:rgb(78.431373%,78.431373%,78.431373%);fill-opacity:1;" d="M 88.050781 118.558594 L 79.75 123.222656 L 82.976562 126.210938 Z M 88.050781 118.558594 "/>
<path style=" stroke:none;fill-rule:evenodd;fill:rgb(78.431373%,78.431373%,78.431373%);fill-opacity:1;" d="M 98.917969 111.507812 L 90.738281 106.667969 L 89.78125 110.96875 Z M 98.917969 111.507812 "/>
<g clip-path="url(#clip8)" clip-rule="nonzero">
<path style=" stroke:none;fill-rule:nonzero;fill:rgb(38.039216%,46.666667%,49.803922%);fill-opacity:1;" d="M 0.0820312 124.597656 C 0.0820312 55.785156 55.816406 0 124.566406 0 C 182.203125 0 230.6875 39.203125 244.859375 92.421875 L 242.773438 92.421875 C 228.652344 40.328125 181.082031 2.015625 124.566406 2.015625 C 56.929688 2.015625 2.097656 56.898438 2.097656 124.597656 C 2.097656 192.296875 56.929688 247.175781 124.566406 247.175781 C 181.082031 247.175781 228.652344 208.863281 242.773438 156.773438 L 244.859375 156.773438 C 230.6875 209.992188 182.203125 249.195312 124.566406 249.195312 C 55.816406 249.195312 0.0820312 193.410156 0.0820312 124.597656 Z M 0.0820312 124.597656 "/>
</g>
<g clip-path="url(#clip9)" clip-rule="nonzero">
<path style="fill:none;stroke-width:1;stroke-linecap:butt;stroke-linejoin:miter;stroke:rgb(100%,100%,100%);stroke-opacity:1;stroke-miterlimit:4;" d="M -0.00151778 123.600875 C -0.00151778 55.338875 55.337008 0.000000000000005837 123.598717 0.000000000000005837 C 180.826075 0.000000000000005837 228.966094 38.8895 243.037314 91.6825 L 240.966192 91.6825 C 226.945392 40.0055 179.712944 1.9995 123.598717 1.9995 C 56.442383 1.9995 1.999791 56.44325 1.999791 123.600875 C 1.999791 190.7585 56.442383 245.198375 123.598717 245.198375 C 179.712944 245.198375 226.945392 207.192375 240.966192 155.51925 L 243.037314 155.51925 C 228.966094 208.31225 180.826075 247.20175 123.598717 247.20175 C 55.337008 247.20175 -0.00151778 191.862875 -0.00151778 123.600875 Z M -0.00151778 123.600875 " transform="matrix(1.007153,0,0,1.008065,0.0835599,-0.000000000000005884)"/>
</g>
</g>
</svg>
