<svg xmlns="http://www.w3.org/2000/svg" version="1.1" xmlns:xlink="http://www.w3.org/1999/xlink" xmlns:svgjs="http://svgjs.dev/svgjs" width="1500" height="939" viewBox="0 0 1500 939"><g transform="matrix(1,0,0,1,-0.9090909090909918,-1.5145161290323017)"><svg viewBox="0 0 396 248" data-background-color="#ffffff" preserveAspectRatio="xMidYMid meet" height="939" width="1500" xmlns="http://www.w3.org/2000/svg" xmlns:xlink="http://www.w3.org/1999/xlink"><g id="tight-bounds" transform="matrix(1,0,0,1,0.2400000000000091,0.4000000000000057)"><svg viewBox="0 0 395.52 247.2" height="247.2" width="395.52"><g><svg></svg></g><g><svg viewBox="0 0 395.52 247.2" height="247.2" width="395.52"><g transform="matrix(1,0,0,1,75.54432000000001,96.9200052730799)"><svg viewBox="0 0 244.43135999999996 53.35998945384019" height="53.35998945384019" width="244.43135999999996"><g><svg viewBox="0 0 318.69694423287456 69.57235594989646" height="53.35998945384019" width="244.43135999999996"><g transform="matrix(1,0,0,1,74.26558423287462,5.854113854193514)"><svg viewBox="0 0 244.43135999999996 57.864128241509434" height="57.864128241509434" width="244.43135999999996"><g id="textblocktransform"><svg viewBox="0 0 244.43135999999996 57.864128241509434" height="57.864128241509434" width="244.43135999999996" id="textblock"><g><svg viewBox="0 0 244.43135999999996 57.864128241509434" height="57.864128241509434" width="244.43135999999996"><g transform="matrix(1,0,0,1,0,0)"><svg width="244.43135999999996" viewBox="3.9 -36.35 198.73999999999998 47.05" height="57.864128241509434" data-palette-color="#61777f"><path d="M14.3-18.35L8.45-12.55 8.45 0 3.9 0 3.9-35.8 8.45-35.8 8.45-17.7 26.3-35.8 32.2-35.8 17.55-21.2 32.3 0 26.9 0 14.3-18.35ZM56.4-25.7L56.4 0 52.35 0 52.35-4.05Q49.6 0.55 44.15 0.55L44.15 0.55Q40.4 0.55 38.17-1.33 35.95-3.2 35.95-6.35L35.95-6.35 35.95-25.7 40-25.7 40-8Q40-5.75 41.45-4.4 42.9-3.05 45.35-3.05L45.35-3.05Q48.55-3.05 50.45-5.38 52.35-7.7 52.35-11.65L52.35-11.65 52.35-25.7 56.4-25.7ZM62.7 0L62.7-35.8 66.75-35.8 66.75-22.25Q69.59-26.25 74.75-26.25L74.75-26.25Q80.2-26.25 83.15-22.25L83.15-22.25Q85.75-18.75 85.75-13L85.75-13Q85.75-6.35 82.3-2.65L82.3-2.65Q79.3 0.55 74.55 0.55L74.55 0.55Q69.2 0.55 66.39-3.5L66.39-3.5 66.39 0 62.7 0ZM74-22.45L74-22.45Q70.7-22.45 68.72-19.78 66.75-17.1 66.75-12.7L66.75-12.7Q66.75-8.1 69-5.5L69-5.5Q70.95-3.3 74-3.3L74-3.3Q77.4-3.3 79.42-5.85 81.45-8.4 81.45-12.7L81.45-12.7Q81.45-17.4 79.15-20.1L79.15-20.1Q77.15-22.45 74-22.45ZM112.49-11.8L112.49-11.65 93.54-11.65Q93.59-8.35 94.94-6.4L94.94-6.4Q97.09-3.25 101.14-3.25L101.14-3.25Q106.14-3.25 107.89-8L107.89-8 111.99-8Q111.19-3.95 108.29-1.7 105.39 0.55 100.99 0.55L100.99 0.55Q95.14 0.55 92.04-3.45L92.04-3.45Q89.29-6.95 89.29-12.7L89.29-12.7Q89.29-19.35 92.89-23.05L92.89-23.05Q96.04-26.25 101.04-26.25L101.04-26.25Q104.69-26.25 107.47-24.5 110.24-22.75 111.44-19.7L111.44-19.7Q112.49-17.1 112.49-11.8L112.49-11.8ZM93.69-15L108.09-15Q108.09-18.35 106.12-20.43 104.14-22.5 101.04-22.5L101.04-22.5Q97.89-22.5 95.92-20.48 93.94-18.45 93.69-15L93.69-15ZM133.79-36.35L133.79-36.35Q142.09-36.35 146.89-30.6L146.89-30.6Q151.04-25.6 151.04-17.9L151.04-17.9Q151.04-9.05 145.69-3.9L145.69-3.9Q140.99 0.55 133.79 0.55L133.79 0.55Q125.44 0.55 120.64-5.2L120.64-5.2Q116.49-10.2 116.49-17.9L116.49-17.9Q116.49-26.75 121.89-31.9L121.89-31.9Q126.54-36.35 133.79-36.35ZM133.74-32.3L133.74-32.3Q127.64-32.3 124.09-27.85L124.09-27.85Q121.04-23.95 121.04-17.9L121.04-17.9Q121.04-10.95 124.99-6.95L124.99-6.95Q128.44-3.5 133.74-3.5L133.74-3.5Q139.89-3.5 143.44-7.95L143.44-7.95Q146.49-11.85 146.49-17.9L146.49-17.9Q146.49-24.85 142.54-28.85L142.54-28.85Q139.09-32.3 133.74-32.3ZM159.59 10.7L155.49 10.7 155.49-25.7 159.29-25.7 159.29-21.75Q162.14-26.25 167.49-26.25L167.49-26.25Q172.94-26.25 175.89-22.05L175.89-22.05Q178.49-18.4 178.49-12.45L178.49-12.45Q178.49-6.1 175.09-2.55L175.09-2.55Q172.14 0.55 167.44 0.55L167.44 0.55Q162.69 0.55 159.59-2.9L159.59-2.9 159.59 10.7ZM166.79-22.45L166.79-22.45Q163.54-22.45 161.56-19.8 159.59-17.15 159.59-12.7L159.59-12.7Q159.59-8.1 161.84-5.5L161.84-5.5Q163.74-3.3 166.79-3.3L166.79-3.3Q170.19-3.3 172.21-5.88 174.24-8.45 174.24-12.7L174.24-12.7Q174.24-17.4 171.94-20.1L171.94-20.1Q169.89-22.45 166.79-22.45ZM201.84-18.65L201.84-18.65 197.34-18.65Q197.14-22.5 192.19-22.5L192.19-22.5Q189.64-22.5 188.16-21.53 186.69-20.55 186.69-18.9L186.69-18.9Q186.69-16.4 191.44-15.3L191.44-15.3 195.39-14.4Q199.24-13.5 200.94-11.85 202.64-10.2 202.64-7.35L202.64-7.35Q202.64-3.7 199.79-1.58 196.94 0.55 192.09 0.55L192.09 0.55Q186.79 0.55 184.04-1.95L184.04-1.95Q181.74-4 181.59-7.4L181.59-7.4 186.24-7.4Q186.64-5.65 187.34-4.85L187.34-4.85Q188.69-3.25 192.39-3.25L192.39-3.25Q195.14-3.25 196.76-4.28 198.39-5.3 198.39-7L198.39-7Q198.39-9.55 194.44-10.5L194.44-10.5 190.59-11.4Q186.19-12.45 184.44-13.9L184.44-13.9Q182.44-15.55 182.44-18.65L182.44-18.65Q182.44-22.15 185.11-24.2 187.79-26.25 192.29-26.25L192.29-26.25Q196.99-26.25 199.59-23.9L199.59-23.9Q201.84-21.85 201.84-18.65Z" opacity="1" transform="matrix(1,0,0,1,0,0)" fill="#61777f" class="wordmark-text-0" data-fill-palette-color="primary" id="text-0"></path></svg></g></svg></g></svg></g></svg></g><g><svg viewBox="0 0 60.605252294132036 69.57235594989646" height="69.57235594989646" width="60.605252294132036"><g><svg xmlns="http://www.w3.org/2000/svg" xmlns:xlink="http://www.w3.org/1999/xlink" version="1.1" x="0" y="0" viewBox="10.1 5.2 78.4 90" enable-background="new 0 0 100 100" xml:space="preserve" height="69.57235594989646" width="60.605252294132036" class="icon-icon-0" data-fill-palette-color="accent" id="icon-0"><polygon fill-rule="evenodd" clip-rule="evenodd" fill="#c8c8c8" points="88.5,28.2 68.4,59.9 68.5,22.3 " data-fill-palette-color="accent"></polygon><polygon fill-rule="evenodd" clip-rule="evenodd" fill="#c8c8c8" points="49.8,5.2 67.2,38.5 34.7,19.6 " data-fill-palette-color="accent"></polygon><polygon fill-rule="evenodd" clip-rule="evenodd" fill="#c8c8c8" points="67.8,38.3 67.8,22.3 60.8,24.5 " data-fill-palette-color="accent"></polygon><polygon fill-rule="evenodd" clip-rule="evenodd" fill="#c8c8c8" points="88.2,73.2 50.6,71.7 83.2,52.9 " data-fill-palette-color="accent"></polygon><polygon fill-rule="evenodd" clip-rule="evenodd" fill="#c8c8c8" points="69.1,60.3 82.8,52.3 77.4,47.4 " data-fill-palette-color="accent"></polygon><polygon fill-rule="evenodd" clip-rule="evenodd" fill="#c8c8c8" points="48.7,95.2 31.5,61.9 63.9,80.9 " data-fill-palette-color="accent"></polygon><polygon fill-rule="evenodd" clip-rule="evenodd" fill="#c8c8c8" points="50.5,72.2 64.2,80.2 65.8,73.1 " data-fill-palette-color="accent"></polygon><polygon fill-rule="evenodd" clip-rule="evenodd" fill="#c8c8c8" points="10.1,72 30.5,40.4 30.1,78 " data-fill-palette-color="accent"></polygon><polygon fill-rule="evenodd" clip-rule="evenodd" fill="#c8c8c8" points="30.9,62.1 30.8,78 37.8,75.8 " data-fill-palette-color="accent"></polygon><polygon fill-rule="evenodd" clip-rule="evenodd" fill="#c8c8c8" points="11,27 48.5,28.9 15.8,47.3 " data-fill-palette-color="accent"></polygon><polygon fill-rule="evenodd" clip-rule="evenodd" fill="#c8c8c8" points="30,40.1 16.1,47.9 21.5,52.9 " data-fill-palette-color="accent"></polygon><polygon fill-rule="evenodd" clip-rule="evenodd" fill="#c8c8c8" points="48.2,28.3 34.5,20.2 32.9,27.4 " data-fill-palette-color="accent"></polygon></svg></g></svg></g></svg></g></svg></g><g><path d="M0 123.6c0-68.262 55.338-123.6 123.6-123.6 57.225 0 105.367 38.89 119.439 91.681l-2.072 0c-14.02-51.674-61.255-89.68-117.367-89.68-67.157 0-121.599 54.442-121.599 121.599 0 67.157 54.442 121.599 121.599 121.599 56.112 0 103.347-38.006 117.367-89.68l2.072 0c-14.072 52.792-62.214 91.681-119.439 91.681-68.262 0-123.6-55.338-123.6-123.6z" fill="#61777f" stroke="transparent" data-fill-palette-color="tertiary"></path></g></svg></g><defs></defs></svg><rect width="395.52" height="247.2" fill="none" stroke="none" visibility="hidden"></rect></g></svg></g></svg>